<svg width="70" height="69" viewBox="0 0 70 69" fill="none" xmlns="http://www.w3.org/2000/svg">
<path d="M37.778 50.5122H1.93262V67.4444H52.9109V61.3566C45.8823 61.357 39.9178 56.8176 37.778 50.5122Z" fill="#D3EDEF"/>
<path d="M50.6305 53.1083C50.2044 53.1083 49.7985 52.9076 49.5163 52.5571L44.5096 46.3357C43.9664 45.6606 44.0252 44.6318 44.6403 44.0362C45.2554 43.4406 46.1943 43.5052 46.7375 44.1796L50.6216 49.0066L58.3542 39.2483C58.892 38.5693 59.8309 38.4977 60.4502 39.0867C61.0694 39.6771 61.1354 40.7059 60.5975 41.3849L51.7519 52.5473C51.4708 52.9018 51.0643 53.1057 50.6365 53.1077C50.6347 53.1083 50.6323 53.1083 50.6305 53.1083Z" fill="#1590A3"/>
<path d="M52.9105 63.5179C52.327 63.5179 51.8543 63.9907 51.8543 64.5741V66.3882H2.98875V43.7999C2.98875 35.9678 9.36046 29.596 17.1926 29.596H20.8272C21.3147 29.596 21.7389 29.2623 21.8538 28.7887C21.9687 28.3151 21.7444 27.8242 21.3109 27.6007C16.8365 25.2957 14.0571 20.7402 14.0571 15.7111C14.0571 8.34153 20.0528 2.34582 27.4224 2.34582C34.7919 2.34582 40.7877 8.34153 40.7877 15.7111C40.7877 20.7398 38.0082 25.2957 33.5338 27.6007C33.1008 27.8238 32.876 28.3147 32.991 28.7887C33.1059 29.2627 33.53 29.596 34.0176 29.596H37.6521C39.2604 29.596 40.8379 29.8626 42.3411 30.3882C42.8928 30.5812 43.494 30.2906 43.6866 29.7397C43.8793 29.1888 43.5891 28.5868 43.0382 28.3941C41.3102 27.79 39.4983 27.4837 37.6516 27.4837H37.4797C40.8857 24.5822 42.9 20.3182 42.9 15.7115C42.9 7.1772 35.9567 0.233887 27.4224 0.233887C18.888 0.233887 11.9439 7.1772 11.9439 15.7115C11.9439 20.3182 13.9582 24.5822 17.3642 27.4837H17.1922C8.19571 27.4837 0.875977 34.803 0.875977 43.7999V67.4444C0.875977 68.0278 1.34872 68.5006 1.93215 68.5006H52.9105C53.4939 68.5006 53.9666 68.0278 53.9666 67.4444V64.5741C53.9666 63.9907 53.4939 63.5179 52.9105 63.5179Z" fill="#1B1B1B"/>
<path d="M52.9104 28.3379C43.516 28.3379 35.873 35.9808 35.873 45.3753C35.873 54.7698 43.516 62.4127 52.9104 62.4127C62.3049 62.4127 69.9479 54.7698 69.9479 45.3753C69.9479 35.9808 62.3049 28.3379 52.9104 28.3379ZM52.9104 60.3004C44.6811 60.3004 37.9854 53.605 37.9854 45.3753C37.9854 37.1456 44.6807 30.4502 52.9104 30.4502C61.1402 30.4502 67.8355 37.1456 67.8355 45.3753C67.8355 53.605 61.1402 60.3004 52.9104 60.3004Z" fill="#1B1B1B"/>
</svg>
