<svg width="56" height="56" viewBox="0 0 56 56" fill="none" xmlns="http://www.w3.org/2000/svg">
<g clip-path="url(#clip0_264_2269)">
<path d="M28.0003 55.9959C43.462 55.9959 55.9962 43.4618 55.9962 28C55.9962 12.5383 43.462 0.00415039 28.0003 0.00415039C12.5386 0.00415039 0.00439453 12.5383 0.00439453 28C0.00439453 43.4618 12.5386 55.9959 28.0003 55.9959Z" fill="#F0F0F0"/>
<path d="M3.75494 14.002C2.49131 16.1904 1.55919 18.4783 0.938477 20.8088L47.7583 47.8405C49.4663 46.1376 50.9818 44.1862 52.2451 41.9978L3.75494 14.002Z" fill="black"/>
<path d="M41.9981 3.75481C30.7961 -2.71256 16.9839 -0.557064 8.2417 8.15944L55.0615 35.1908C58.2393 23.2619 53.1998 10.2223 41.9981 3.75481Z" fill="#FFDA44"/>
<path d="M14.0022 52.2451C25.2039 58.7125 39.0164 56.557 47.7584 47.8406L0.938469 20.8088C-2.23905 32.7381 2.80018 45.7777 14.0022 52.2451Z" fill="#FFDA44"/>
<path d="M35.9119 24.9568C35.9119 29.3263 32.3696 32.8687 28 32.8687C23.6303 32.8687 20.088 29.3264 20.088 24.9568C20.088 23.5944 20.4325 22.3124 21.0391 21.1931C19.3222 22.9489 18.2622 25.35 18.2622 27.9998C18.2622 33.3778 22.6219 37.7375 28 37.7375C33.378 37.7375 37.7377 33.3779 37.7377 27.9998C37.7377 25.35 36.6779 22.9489 34.9608 21.1931C35.5675 22.3126 35.9119 23.5944 35.9119 24.9568Z" fill="#D80027"/>
<path d="M26.1743 15.8279H29.826V34.0861H26.1743V15.8279Z" fill="#D80027"/>
<path d="M34.0861 19.4795H21.9141C21.9141 20.3198 22.6461 21.001 23.4864 21.001H23.4356C23.4356 21.8414 24.1169 22.5226 24.9572 22.5226C24.9572 23.3629 25.6385 24.0441 26.4787 24.0441H29.5217C30.362 24.0441 31.0432 23.3629 31.0432 22.5226C31.8836 22.5226 32.5648 21.8414 32.5648 21.001H32.5141C33.3542 21.0009 34.0861 20.3199 34.0861 19.4795Z" fill="#D80027"/>
<path d="M19.48 35.3032H36.521V38.9549H19.48V35.3032Z" fill="#D80027"/>
<path d="M31.6519 36.5205H38.9551V40.1722H31.6519V36.5205Z" fill="#D80027"/>
<path d="M17.0454 36.5205H24.3486V40.1722H17.0454V36.5205Z" fill="#D80027"/>
</g>
<rect x="1" y="1" width="54" height="54" rx="27" stroke="white" stroke-width="2"/>
<defs>
<clipPath id="clip0_264_2269">
<rect width="56" height="56" rx="28" fill="white"/>
</clipPath>
</defs>
</svg>
