<svg width="24" height="22" viewBox="0 0 24 22" fill="none" xmlns="http://www.w3.org/2000/svg">
<path d="M0.517822 7.33398C0.517822 9.7244 2.45579 11.6624 4.8462 11.6624H19.1541C21.5445 11.6624 23.4825 9.7246 23.4825 7.33398V9.20569C23.4825 11.5961 21.5445 13.5341 19.1541 13.5341H4.8462C2.45579 13.5341 0.517822 11.5961 0.517822 9.20569V7.33398Z" fill="#F0F9F9"/>
<path d="M22.1262 19.1033H1.87413C1.12516 19.1033 0.517822 18.496 0.517822 17.747V19.1717C0.517822 19.9206 1.12516 20.528 1.87413 20.528H22.1262C22.8751 20.528 23.4825 19.9206 23.4825 19.1717V17.747C23.4825 18.496 22.8751 19.1033 22.1262 19.1033Z" fill="#F0F9F9"/>
<path d="M12.7347 15.0595H11.2653C11.1717 15.0595 11.0957 14.9835 11.0957 14.8899V12.1773C11.0957 12.0837 11.1717 12.0077 11.2653 12.0077H12.7347C12.8283 12.0077 12.9043 12.0837 12.9043 12.1773V14.8899C12.9043 14.9837 12.8285 15.0595 12.7347 15.0595Z" fill="#1590A3"/>
<path d="M24.0002 6.30269C24.0002 5.26941 23.1595 4.42871 22.1263 4.42871H1.87423C0.840947 4.42871 0.000244141 5.26941 0.000244141 6.30269V19.1706C0.000244141 20.2039 0.840947 21.0446 1.87423 21.0446H22.1263C23.1595 21.0446 24.0002 20.2039 24.0002 19.1706V6.30269ZM22.1263 20.0091H1.87423C1.41184 20.0091 1.03559 19.6328 1.03559 19.1704V12.1934C1.92351 13.3232 3.30094 14.051 4.84609 14.051H10.01C10.296 14.051 10.5277 13.8193 10.5277 13.5334C10.5277 13.2474 10.296 13.0157 10.01 13.0157H4.8463C2.74516 13.0157 1.0358 11.3063 1.0358 9.20498V6.30269C1.0358 5.84031 1.41184 5.46406 1.87443 5.46406H22.1265C22.5889 5.46406 22.9651 5.84031 22.9651 6.30269V9.20498C22.9651 11.3061 21.2557 13.0157 19.1546 13.0157H13.9903C13.7043 13.0157 13.4726 13.2474 13.4726 13.5334C13.4726 13.8193 13.7043 14.051 13.9903 14.051H19.1542C20.6993 14.051 22.0768 13.3232 22.9647 12.1934V19.1706C22.9649 19.633 22.5887 20.0091 22.1263 20.0091Z" fill="#1B1B1B"/>
<path d="M7.65659 4.31156C7.94255 4.31156 8.17426 4.07985 8.17426 3.79389V1.94641C8.17426 1.6472 8.41778 1.40347 8.71699 1.40347H15.283C15.5822 1.40347 15.8257 1.64699 15.8257 1.94641V3.79389C15.8257 4.07985 16.0574 4.31156 16.3434 4.31156C16.6293 4.31156 16.861 4.07985 16.861 3.79389V1.94641C16.861 1.0761 16.1531 0.368126 15.283 0.368126H8.71699C7.84689 0.368126 7.13892 1.0761 7.13892 1.94641V3.79389C7.13892 4.07985 7.37063 4.31156 7.65659 4.31156Z" fill="#1B1B1B"/>
<path d="M13.855 1.77107H10.1453C9.9989 1.77107 9.88025 1.65242 9.88025 1.50602V0.265049C9.88025 0.118651 9.9989 0 10.1453 0H13.8552C14.0016 0 14.1202 0.118651 14.1202 0.265049V1.50602C14.1202 1.65242 14.0014 1.77107 13.855 1.77107Z" fill="#1590A3"/>
</svg>
