<svg width="84" height="66" viewBox="0 0 84 66" fill="none" xmlns="http://www.w3.org/2000/svg">
<path d="M31.0576 27.99H52.9396C53.4575 27.99 53.8771 27.5704 53.8771 27.0525V1.53748C53.8771 1.0196 53.4575 0.599976 52.9396 0.599976H31.0576C30.5397 0.599976 30.1201 1.0196 30.1201 1.53748V27.0521C30.1201 27.57 30.5397 27.99 31.0576 27.99ZM31.9951 2.47498H52.0021V26.1146H31.9951V2.47498Z" fill="#1B1B1B"/>
<path d="M35.8857 8.84474H44.0075C44.5254 8.84474 44.945 8.42512 44.945 7.90724C44.945 7.38937 44.5254 6.96974 44.0075 6.96974H35.8857C35.3679 6.96974 34.9482 7.38937 34.9482 7.90724C34.9482 8.42512 35.3679 8.84474 35.8857 8.84474Z" fill="#1B1B1B"/>
<path d="M48.4812 15.9514H35.8857C35.3679 15.9514 34.9482 16.371 34.9482 16.8889C34.9482 17.4067 35.3679 17.8264 35.8857 17.8264H48.4812C48.9991 17.8264 49.4187 17.4067 49.4187 16.8889C49.4187 16.371 48.9991 15.9514 48.4812 15.9514Z" fill="#1B1B1B"/>
<path d="M48.4812 20.2117H35.8857C35.3679 20.2117 34.9482 20.6314 34.9482 21.1492C34.9482 21.6671 35.3679 22.0867 35.8857 22.0867H48.4812C48.9991 22.0867 49.4187 21.6671 49.4187 21.1492C49.4187 20.6314 48.9991 20.2117 48.4812 20.2117Z" fill="#1B1B1B"/>
<path d="M56.6904 14.5522H74.9994C75.5166 14.5522 75.9369 14.973 75.9369 15.4897V55.2397C75.9369 55.7576 76.3566 56.1772 76.8744 56.1772C77.3923 56.1772 77.8119 55.7576 77.8119 55.2397V15.4897C77.8119 13.9387 76.5504 12.6772 74.9994 12.6772H56.6904C56.1726 12.6772 55.7529 13.0968 55.7529 13.6147C55.7529 14.1326 56.1726 14.5522 56.6904 14.5522Z" fill="#1B1B1B"/>
<path d="M7.12402 56.1772C7.6419 56.1772 8.06152 55.7576 8.06152 55.2397V15.4897C8.06152 14.973 8.48227 14.5522 8.99902 14.5522H27.308C27.8259 14.5522 28.2455 14.1326 28.2455 13.6147C28.2455 13.0968 27.8259 12.6772 27.308 12.6772H8.99902C7.44802 12.6772 6.18652 13.9387 6.18652 15.4897V55.2397C6.18652 55.7576 6.60615 56.1772 7.12402 56.1772Z" fill="#1B1B1B"/>
<path d="M56.6901 19.2397H70.9368V52.9897H13.0615V19.2397H27.3081C27.826 19.2397 28.2456 18.8201 28.2456 18.3022C28.2456 17.7843 27.826 17.3647 27.3081 17.3647H12.124C11.6061 17.3647 11.1865 17.7843 11.1865 18.3022V53.9272C11.1865 54.4451 11.6061 54.8647 12.124 54.8647H71.8739C72.3918 54.8647 72.8114 54.4451 72.8114 53.9272V18.3022C72.8114 17.7843 72.3918 17.3647 71.8739 17.3647H56.6898C56.1719 17.3647 55.7523 17.7843 55.7523 18.3022C55.7523 18.8201 56.1723 19.2397 56.6901 19.2397Z" fill="#1B1B1B"/>
<path d="M79.8114 57.6772H4.18665C1.98127 57.6772 0.186523 59.4716 0.186523 61.6773C0.186523 63.8831 1.9809 65.6775 4.18665 65.6775H79.8118C82.0175 65.6775 83.8119 63.8831 83.8119 61.6773C83.8119 59.4716 82.0171 57.6772 79.8114 57.6772ZM79.8114 63.8025H4.18665C3.01477 63.8025 2.06152 62.8492 2.06152 61.6773C2.06152 60.5055 3.01477 59.5522 4.18665 59.5522H79.8118C80.9836 59.5522 81.9369 60.5055 81.9369 61.6773C81.9369 62.8492 80.9833 63.8025 79.8114 63.8025Z" fill="#1B1B1B"/>
</svg>
