<svg width="56" height="56" viewBox="0 0 56 56" fill="none" xmlns="http://www.w3.org/2000/svg">
<g clip-path="url(#clip0_264_2293)">
<path fill-rule="evenodd" clip-rule="evenodd" d="M27.9836 56C12.5647 56 0 43.4353 0 27.9836C0 12.5647 12.5647 0 27.9836 0C43.4353 0 56 12.5647 56 27.9836C56 43.4353 43.4353 56 27.9836 56Z" fill="#4BAFC7"/>
<path fill-rule="evenodd" clip-rule="evenodd" d="M37.2022 1.54199C46.6503 4.85541 53.8021 13.0897 55.5736 23.1612C55.4096 23.1612 55.2455 23.1612 55.0815 23.194C54.8847 23.194 54.6878 23.1284 54.5238 22.9972L52.4242 21.0616C51.9321 21.16 51.4728 21.3569 51.4072 21.4881C51.4072 21.5209 51.4072 21.6849 51.6369 21.9474L53.9333 23.4237C54.1957 23.5877 54.2942 23.9157 54.1957 24.211L53.2444 27.0323C53.2116 27.1635 53.1131 27.2948 53.0147 27.3604C52.9819 27.3932 51.7025 28.3774 50.259 28.3774C49.6357 28.3774 49.078 28.2133 48.5859 27.8525C47.6673 27.1964 47.044 26.5074 46.6831 26.0481C46.4207 26.2778 46.2567 26.409 46.2567 26.4746C46.2567 26.5402 46.3551 26.7043 46.716 26.9667C47.2737 27.426 47.6345 27.9181 47.897 28.3118C48.3235 28.9679 48.5531 29.2959 49.6685 29.2959C50.2262 29.2959 50.8823 29.1975 51.7681 29.0335C52.0633 28.9679 52.3586 29.0991 52.4898 29.3616C52.6539 29.624 52.621 29.9521 52.3914 30.1489L47.2408 35.6931V40.5812C47.2408 40.7781 47.1424 40.9749 46.9784 41.1061L45.5021 42.3528V44.4524C45.5021 44.6164 45.4365 44.7804 45.3053 44.9116L42.648 47.7002C42.5168 47.8314 42.3527 47.9298 42.1559 47.9298H38.9409C38.8425 47.9298 38.7441 47.897 38.6785 47.8642C37.6615 47.4377 35.8571 45.8958 36.3492 43.2057V37.0382L35.037 35.9228C34.9058 35.7915 34.8401 35.6275 34.8073 35.4307L34.7417 33.692H28.5414C28.3773 33.692 28.1805 33.6264 28.0821 33.4951L24.5718 30.1161C24.4406 29.9849 24.375 29.788 24.375 29.624V26.0481C24.375 25.8841 24.4406 25.7201 24.539 25.5889L26.9667 22.7347L27.3604 21.4881C27.3932 21.3897 27.4588 21.2913 27.5244 21.2256C27.6228 21.1272 29.7224 19.0604 32.8062 19.0604C33.5935 19.0604 34.3809 19.1917 35.1354 19.4541C35.9227 18.1747 36.382 16.928 36.218 16.6328C35.8571 16.0423 35.5947 15.3534 35.3978 14.7957L32.4781 16.5344C32.2485 16.6656 31.9532 16.6656 31.7236 16.5344L29.1975 14.8613C28.9679 14.73 28.8694 14.4348 28.9022 14.1723L29.4271 11.6463C29.4599 11.4822 29.5584 11.351 29.6568 11.2526L31.9204 9.34984C32.0516 9.25142 32.1829 9.18581 32.3141 9.18581L37.9895 8.66091C39.1049 8.00479 40.1219 7.08622 40.1219 6.72535C40.1219 6.4301 39.1377 5.8724 38.4488 5.8724C38.416 5.8724 38.416 5.8724 38.3832 5.8724C38.2192 6.03643 38.0223 6.10204 37.7927 6.10204C37.5302 6.10204 36.8741 6.10204 35.9227 3.87122C35.8571 3.74 35.8571 3.64158 35.8571 3.51036C35.8899 3.44475 36.054 2.32934 37.2022 1.54199Z" fill="#C7D357"/>
<path fill-rule="evenodd" clip-rule="evenodd" d="M9.15283 7.31576C13.9753 2.88694 20.3725 0.16403 27.3602 0L27.3274 0.459285L28.0819 0.787346C28.246 0.852958 28.3772 0.984183 28.4428 1.14821L28.8365 2.1324C28.9349 2.29643 28.9021 2.52607 28.8365 2.6901L28.0491 4.2976C27.9179 4.59285 27.557 4.75688 27.229 4.65847L25.3918 4.06796C25.2606 4.00234 25.1622 3.93673 25.0638 3.83831L24.1124 2.65729L22.8002 2.29643L20.8646 2.91974L19.7492 4.06796C19.7164 4.13357 19.6836 4.16637 19.618 4.19918L18.8962 4.62566L19.1587 5.44581C19.1915 5.57704 19.1915 5.74107 19.1259 5.87229L18.5026 7.47979C18.437 7.67663 18.2729 7.84066 18.0761 7.90627C18.0761 7.90627 16.9935 8.29994 17.1247 9.02168C17.2887 9.94025 17.5184 10.2683 17.5512 10.3011C17.7152 10.4651 17.7808 10.6948 17.748 10.9244C17.7152 11.1541 17.5512 11.3509 17.3215 11.4493L15.6156 12.1383C15.55 12.1711 15.4516 12.1711 15.3532 12.1711C15.2876 12.1711 15.222 12.1711 15.1235 12.1383L12.3022 11.1541C12.2038 11.1213 12.1054 11.0557 12.007 10.9572C12.007 10.9244 10.5307 9.1529 9.15283 7.31576Z" fill="#C7D357"/>
<path fill-rule="evenodd" clip-rule="evenodd" d="M7.57821 47.1095C2.88694 42.0901 0 35.3649 0 27.9835C0 21.2911 2.36204 15.1235 6.33158 10.301L8.95606 12.2694C8.98887 12.3022 9.02168 12.335 9.02168 12.3678L9.94025 13.352L11.9414 12.499C12.1054 12.4334 12.3023 12.4334 12.4663 12.499L14.4347 13.2536C14.6315 13.352 14.7627 13.4832 14.8284 13.6472L16.1078 16.9935C16.239 17.3215 16.1078 17.6824 15.8125 17.8464L12.4007 19.7164C12.3023 19.782 12.1711 19.8148 12.0398 19.782L8.75923 19.5523L6.10193 21.1926L4.16637 25.195L4.3304 28.6068V28.7709L3.90392 30.9689L5.83948 31.9202C5.97071 32.0187 6.10193 32.1171 6.16755 32.2483L7.64382 35.3977C7.74224 35.5945 7.74224 35.7914 7.64382 35.9882C7.61101 36.0866 6.49561 38.6455 8.23433 39.7609C10.1371 41.0403 11.0557 41.0403 11.0885 41.0403C11.3509 41.0403 11.5477 41.1388 11.7118 41.3028C11.843 41.4996 11.8758 41.7621 11.7774 41.9917L10.4323 45.4364C10.3667 45.5676 10.2683 45.6988 10.1043 45.7644L7.57821 47.1095Z" fill="#C7D357"/>
<path fill-rule="evenodd" clip-rule="evenodd" d="M27.9836 55.9999C12.5647 55.9999 0 43.4352 0 27.9835C0 25.1294 0.426479 22.3737 1.24663 19.782C7.08612 32.7404 19.0603 47.7984 43.4353 51.3414C39.0064 54.2612 33.6919 55.9999 27.9836 55.9999Z" fill="#449EB3"/>
<path fill-rule="evenodd" clip-rule="evenodd" d="M7.57821 47.1095C2.88694 42.0901 0 35.3649 0 27.9835C0 25.1294 0.426479 22.3737 1.24663 19.782C2.06678 21.6519 3.05097 23.5875 4.16637 25.523L4.3304 28.6068V28.7709L3.90393 30.9689L5.83948 31.9202C5.97071 32.0187 6.10193 32.1171 6.16755 32.2483L7.64382 35.3977C7.74224 35.5945 7.74224 35.7914 7.64382 35.9882C7.61101 36.0866 6.49561 38.6455 8.23433 39.7609C10.1371 41.0403 11.0557 41.0403 11.0885 41.0403C11.3509 41.0403 11.5477 41.1387 11.7118 41.3028C11.843 41.4996 11.8758 41.7621 11.7774 41.9917L10.4323 45.4363C10.3667 45.5676 10.2683 45.6988 10.1043 45.7644L7.57821 47.1095Z" fill="#B3BE4E"/>
</g>
<rect x="1" y="1" width="54" height="54" rx="27" stroke="white" stroke-width="2"/>
<defs>
<clipPath id="clip0_264_2293">
<rect width="56" height="56" rx="28" fill="white"/>
</clipPath>
</defs>
</svg>
