<svg width="24" height="24" viewBox="0 0 24 24" fill="none" xmlns="http://www.w3.org/2000/svg">
<path d="M14.7687 8.30796C15.2785 8.30796 15.6918 7.89471 15.6918 7.38494C15.6918 6.87517 15.2785 6.46191 14.7687 6.46191C14.259 6.46191 13.8457 6.87517 13.8457 7.38494C13.8457 7.89471 14.259 8.30796 14.7687 8.30796Z" fill="#B3B3B3"/>
<path d="M4 15.6816C21.8646 19.5921 20.2301 7.10514 19.7193 4.7545C19.6946 4.63819 19.6366 4.53153 19.5526 4.44744C19.4685 4.36335 19.3618 4.30543 19.2455 4.28068C16.8948 3.76994 4.40691 2.13542 8.3152 19.9998" stroke="#B3B3B3" stroke-width="1.5" stroke-linecap="round" stroke-linejoin="round"/>
<path d="M18.2987 13.231C17.3044 13.2508 16.3164 13.0695 15.3938 12.6981C14.4713 12.3267 13.6333 11.7727 12.9301 11.0694C12.2269 10.3662 11.6731 9.52815 11.3017 8.6056C10.9303 7.68304 10.7492 6.69498 10.7691 5.70068" stroke="#B3B3B3" stroke-width="1.5" stroke-linecap="round" stroke-linejoin="round"/>
</svg>
