<svg width="19" height="24" viewBox="0 0 19 24" fill="none" xmlns="http://www.w3.org/2000/svg">
<path d="M18.1683 17.5627H0.60083V23.3977H18.1683V17.5627Z" fill="#D3EDEF"/>
<path d="M13.4237 9.41266C14.3945 8.39466 14.9562 7.03075 14.9562 5.5711C14.9562 2.49906 12.4569 0 9.38512 0C6.31332 0 3.81402 2.4993 3.81402 5.5711C3.81402 7.03075 4.3757 8.39466 5.34655 9.41266C2.35485 9.67342 0.00012207 12.1922 0.00012207 15.2505V23.3986C0.00012207 23.7308 0.269296 24 0.601493 24H18.1687C18.5009 24 18.7701 23.7308 18.7701 23.3986V15.2505C18.7701 12.192 16.4154 9.67342 13.4237 9.41266ZM17.5674 22.797H1.20286V15.2503C1.20286 12.6822 3.29203 10.593 5.85988 10.593H7.11242C7.39001 10.593 7.63152 10.403 7.69695 10.1333C7.76238 9.86369 7.63465 9.58417 7.38784 9.45692C5.92531 8.70377 5.01676 7.21453 5.01676 5.57086C5.01676 3.16201 6.97627 1.2025 9.38512 1.2025C11.794 1.2025 13.7535 3.16201 13.7535 5.57086C13.7535 7.21453 12.8449 8.70353 11.3826 9.45692C11.1358 9.58393 11.0081 9.86345 11.0735 10.1333C11.1387 10.4032 11.3802 10.593 11.6581 10.593H12.9104C15.4785 10.593 17.5676 12.6824 17.5676 15.2503L17.5674 22.797Z" fill="#1B1B1B"/>
</svg>
