<svg width="78" height="80" viewBox="0 0 78 80" fill="none" xmlns="http://www.w3.org/2000/svg">
<path d="M71.4887 66.2336H42.5553C42.2847 66.2336 42.0252 66.1261 41.8338 65.9348C41.6425 65.7434 41.535 65.4839 41.535 65.2132C41.535 64.9426 41.6425 64.6831 41.8338 64.4917C42.0252 64.3004 42.2847 64.1929 42.5553 64.1929H70.4683V52.5198H6.66868V64.1929H29.3443C29.6149 64.1929 29.8745 64.3004 30.0658 64.4917C30.2572 64.6831 30.3647 64.9426 30.3647 65.2132C30.3647 65.4839 30.2572 65.7434 30.0658 65.9348C29.8745 66.1261 29.6149 66.2336 29.3443 66.2336H5.64831C5.37769 66.2336 5.11815 66.1261 4.92679 65.9348C4.73543 65.7434 4.62793 65.4839 4.62793 65.2132V51.4994C4.62793 51.2288 4.73543 50.9692 4.92679 50.7779C5.11815 50.5865 5.37769 50.479 5.64831 50.479H71.4887C71.7593 50.479 72.0189 50.5865 72.2102 50.7779C72.4016 50.9692 72.5091 51.2288 72.5091 51.4994V65.2132C72.5091 65.4839 72.4016 65.7434 72.2102 65.9348C72.0189 66.1261 71.7593 66.2336 71.4887 66.2336Z" fill="#EBE7F2"/>
<path d="M38.5682 48.1756C38.2976 48.1756 38.0381 48.0681 37.8467 47.8768C37.6554 47.6854 37.5479 47.4259 37.5479 47.1553V36.9376C37.5479 36.667 37.6554 36.4075 37.8467 36.2161C38.0381 36.0247 38.2976 35.9172 38.5682 35.9172C38.8388 35.9172 39.0984 36.0247 39.2897 36.2161C39.4811 36.4075 39.5886 36.667 39.5886 36.9376V47.1553C39.5886 47.4259 39.4811 47.6854 39.2897 47.8768C39.0984 48.0681 38.8388 48.1756 38.5682 48.1756Z" fill="#1590A3"/>
<path d="M45.6037 79.9999C45.3434 80.0006 45.0856 79.9497 44.8451 79.8501C44.6047 79.7504 44.3864 79.6041 44.2029 79.4195L36.8945 72.1136L34.293 75.991C34.0786 76.3109 33.7757 76.5613 33.4212 76.7117C33.0668 76.862 32.6762 76.9058 32.2972 76.8377C31.9183 76.7696 31.5674 76.5925 31.2875 76.3281C31.0076 76.0637 30.8108 75.7235 30.7213 75.349L26.7214 58.6385C26.6426 58.3091 26.6495 57.965 26.7416 57.6391C26.8336 57.3132 27.0078 57.0163 27.2473 56.7768C27.4868 56.5373 27.7837 56.3633 28.1096 56.2713C28.4356 56.1793 28.7797 56.1724 29.1091 56.2512L45.82 60.2511C46.1944 60.3407 46.5345 60.5375 46.7989 60.8173C47.0632 61.0971 47.2403 61.4479 47.3085 61.8268C47.3766 62.2057 47.3329 62.5962 47.1826 62.9506C47.0324 63.305 46.7821 63.608 46.4624 63.8224L42.585 66.4244L49.8929 73.7328C50.2637 74.1046 50.4718 74.6082 50.4718 75.1333C50.4718 75.6584 50.2637 76.1621 49.8929 76.5339L47.0057 79.4212C46.8219 79.6056 46.6033 79.7517 46.3626 79.851C46.122 79.9504 45.864 80.001 45.6037 79.9999ZM36.739 69.4921C37.0096 69.4922 37.269 69.5998 37.4602 69.7912L45.6037 77.9343L48.4064 75.1319L40.2626 66.9889C40.156 66.8823 40.0744 66.7534 40.0235 66.6116C39.9727 66.4697 39.9539 66.3183 39.9685 66.1683C39.9832 66.0182 40.0308 65.8733 40.1082 65.744C40.1855 65.6146 40.2905 65.5039 40.4157 65.4199L45.2114 62.2029L28.7287 58.2569L32.6747 74.7397L35.8913 69.9443C35.9751 69.8188 36.0856 69.7134 36.215 69.6358C36.3443 69.5582 36.4893 69.5102 36.6394 69.4953C36.6725 69.4937 36.7064 69.4921 36.739 69.4921Z" fill="#1590A3"/>
<path d="M76.118 46.1348H1.02038C0.749756 46.1348 0.490218 46.2423 0.298861 46.4336C0.107503 46.625 0 46.8845 0 47.1551V69.6442C0 69.9149 0.107503 70.1744 0.298861 70.3658C0.490218 70.5571 0.749756 70.6646 1.02038 70.6646H22.8911C23.1617 70.6646 23.4213 70.5571 23.6126 70.3658C23.804 70.1744 23.9115 69.9149 23.9115 69.6442C23.9115 69.3736 23.804 69.1141 23.6126 68.9227C23.4213 68.7314 23.1617 68.6239 22.8911 68.6239H2.04075V48.1755H75.0977V68.6239H51.9882C51.7176 68.6239 51.458 68.7314 51.2667 68.9227C51.0753 69.1141 50.9678 69.3736 50.9678 69.6442C50.9678 69.9149 51.0753 70.1744 51.2667 70.3658C51.458 70.5571 51.7176 70.6646 51.9882 70.6646H76.118C76.3887 70.6646 76.6482 70.5571 76.8396 70.3658C77.0309 70.1744 77.1384 69.9149 77.1384 69.6442V47.1551C77.1384 46.8845 77.0309 46.625 76.8396 46.4336C76.6482 46.2423 76.3887 46.1348 76.118 46.1348Z" fill="#1B1B1B"/>
<path d="M38.5684 37.958C42.3222 37.958 45.9917 36.8449 49.1128 34.7593C52.2339 32.6738 54.6665 29.7095 56.1029 26.2414C57.5393 22.7733 57.915 18.9571 57.1825 15.2755C56.45 11.5939 54.6422 8.21213 51.9877 5.55797C49.3332 2.9038 45.9512 1.09642 42.2695 0.364386C38.5878 -0.367646 34.7716 0.00855069 31.3037 1.4454C27.8358 2.88225 24.8719 5.31522 22.7867 8.43663C20.7016 11.558 19.5889 15.2277 19.5894 18.9815C19.5953 24.013 21.5969 28.8366 25.1549 32.3942C28.7129 35.9518 33.5369 37.9527 38.5684 37.958ZM38.5684 2.04321C41.9184 2.04321 45.1933 3.03662 47.9788 4.89782C50.7642 6.75902 52.9352 9.40442 54.2173 12.4995C55.4993 15.5945 55.8347 19.0003 55.1811 22.286C54.5276 25.5717 52.9144 28.5898 50.5455 30.9586C48.1767 33.3275 45.1586 34.9407 41.8729 35.5943C38.5872 36.2478 35.1814 35.9124 32.0864 34.6304C28.9913 33.3484 26.3459 31.1773 24.4847 28.3919C22.6235 25.6064 21.6301 22.3315 21.6301 18.9815C21.6349 14.4906 23.4209 10.1851 26.5965 7.00956C29.772 3.83405 34.0775 2.04797 38.5684 2.04321Z" fill="#1B1B1B"/>
<path d="M36.8729 24.681H36.8219C36.6795 24.6739 36.5402 24.637 36.413 24.5728C36.2858 24.5085 36.1734 24.4183 36.0831 24.308L31.3551 18.5282C31.2676 18.4248 31.2014 18.305 31.1607 18.1759C31.1199 18.0467 31.1052 17.9107 31.1175 17.7758C31.1298 17.6409 31.1689 17.5098 31.2324 17.3901C31.2959 17.2705 31.3826 17.1647 31.4875 17.0789C31.5923 16.9931 31.7132 16.9291 31.843 16.8905C31.9729 16.8519 32.1091 16.8395 32.2438 16.8542C32.3785 16.8688 32.5089 16.9101 32.6274 16.9756C32.746 17.0412 32.8503 17.1297 32.9343 17.236L36.9484 22.1419L44.8196 14.2712C45.0112 14.0812 45.2703 13.9748 45.5401 13.9753C45.81 13.9759 46.0686 14.0833 46.2595 14.2741C46.4503 14.4649 46.5578 14.7235 46.5584 14.9933C46.5591 15.2632 46.4528 15.5223 46.2628 15.714L37.5941 24.3823C37.4028 24.5735 37.1434 24.681 36.8729 24.681Z" fill="#1590A3"/>
</svg>
