<svg width="25" height="24" viewBox="0 0 25 24" fill="none" xmlns="http://www.w3.org/2000/svg">
<path d="M10.5 6H5.5C4.39543 6 3.5 6.89543 3.5 8V17C3.5 18.1046 4.39543 19 5.5 19H19.5C20.6046 19 21.5 18.1046 21.5 17V8C21.5 6.89543 20.6046 6 19.5 6H14.5M10.5 6V5C10.5 3.89543 11.3954 3 12.5 3C13.6046 3 14.5 3.89543 14.5 5V6M10.5 6C10.5 7.10457 11.3954 8 12.5 8C13.6046 8 14.5 7.10457 14.5 6M9.5 14C10.6046 14 11.5 13.1046 11.5 12C11.5 10.8954 10.6046 10 9.5 10C8.39543 10 7.5 10.8954 7.5 12C7.5 13.1046 8.39543 14 9.5 14ZM9.5 14C10.8062 14 11.9174 14.8348 12.3292 16M9.5 14C8.19378 14 7.08249 14.8348 6.67065 16M15.5 11H18.5M15.5 15H17.5" stroke="#1590A3" stroke-width="1.5" stroke-linecap="round" stroke-linejoin="round"/>
</svg>
