<svg width="120" height="120" viewBox="0 0 120 120" fill="none" xmlns="http://www.w3.org/2000/svg">
<rect width="120" height="120" rx="60" fill="#F0F9F9"/>
<path d="M67.3125 78.1762L30.3 92.3512C27.2625 93.4762 24.225 90.5512 25.4625 87.5137L39.525 50.3887C39.075 54.5512 43.0125 61.6387 49.5375 68.1637C56.0625 74.6887 63.2625 78.6262 67.3125 78.1762Z" fill="#F68A1E"/>
<path d="M36.4598 60.5137C39.2469 64.584 42.5258 68.4848 45.6407 71.8767C48.7557 75.0991 52.5264 78.4911 56.625 81.3742L29.4604 92.1064C27.3501 92.9401 25.2475 90.8845 26.0334 88.7559L36.4598 60.5137Z" fill="white"/>
<path d="M67.3125 78.1762L30.3 92.3512C27.2625 93.4762 24.225 90.5512 25.4625 87.5137L39.525 50.3887C39.075 54.5512 43.0125 61.6387 49.5375 68.1637C56.0625 74.6887 63.2625 78.6262 67.3125 78.1762Z" stroke="#0B4852" stroke-width="2.625" stroke-miterlimit="10" stroke-linecap="round" stroke-linejoin="round"/>
<path d="M67.987 66.3637C70.7995 71.2012 71.587 75.3637 69.6745 77.1637C69.112 77.7262 68.3245 78.0637 67.312 78.1762C63.1495 78.6262 56.062 74.6887 49.537 68.1637C43.012 61.6387 39.187 54.5512 39.5245 50.3887C39.637 49.3762 39.9745 48.5887 40.537 48.0262C42.4495 46.1137 46.612 46.9012 51.337 49.7137" stroke="#0B4852" stroke-width="2.625" stroke-miterlimit="10" stroke-linecap="round" stroke-linejoin="round"/>
<path d="M39.8625 53.3135C39.3 60.626 40.9875 72.4385 53.3625 83.4635" stroke="#0B4852" stroke-width="2.625" stroke-miterlimit="10" stroke-linecap="round" stroke-linejoin="round"/>
<path d="M34.2373 64.2263C34.7998 70.6388 37.3873 78.7388 45.1498 86.6138" stroke="#0B4852" stroke-width="2.625" stroke-miterlimit="10" stroke-linecap="round" stroke-linejoin="round"/>
<path d="M29.7373 76.0388C30.9748 80.3138 33.2248 85.0388 37.1623 89.7638" stroke="#0B4852" stroke-width="2.625" stroke-miterlimit="10" stroke-linecap="round" stroke-linejoin="round"/>
<path d="M61.6865 70.5262C61.6865 70.5262 62.474 62.0887 75.6365 56.5762" stroke="#0B4852" stroke-width="2.625" stroke-miterlimit="10" stroke-linecap="round" stroke-linejoin="round"/>
<path d="M47.1748 56.0135C47.1748 56.0135 55.6123 55.226 61.1248 42.0635" stroke="#0B4852" stroke-width="2.625" stroke-miterlimit="10" stroke-linecap="round" stroke-linejoin="round"/>
<path d="M59.6615 29.4636L57.749 35.6511" stroke="#0B4852" stroke-width="2.625" stroke-miterlimit="10" stroke-linecap="round" stroke-linejoin="round"/>
<path d="M55.7246 31.6013L61.7996 33.5138" stroke="#0B4852" stroke-width="2.625" stroke-miterlimit="10" stroke-linecap="round" stroke-linejoin="round"/>
<path d="M82.8382 38.1261H82.0507C81.2632 38.1261 80.4757 38.4636 80.0257 39.2511L79.5757 39.8136C78.3382 41.5011 75.7507 41.0511 75.0757 39.1386L74.8507 38.4636C74.6257 37.6761 73.9507 37.0011 73.1632 36.7761L72.4882 36.5511C70.4632 35.8761 70.0132 33.2886 71.8132 32.0511L72.3757 31.6011C73.0507 31.1511 73.5007 30.3636 73.3882 29.4636V28.7886C73.3882 26.6511 75.7507 25.5261 77.4382 26.7636L78.0007 27.2136C78.6757 27.6636 79.5757 27.8886 80.3632 27.5511L81.0382 27.3261C83.0632 26.6511 84.8632 28.5636 84.1882 30.4761L83.9632 31.1511C83.7382 31.9386 83.8507 32.8386 84.3007 33.4011L84.7507 33.9636C86.1007 35.7636 84.8632 38.1261 82.8382 38.1261Z" fill="#27D1FF"/>
<path d="M77.8877 35.876C77.3252 34.976 76.5377 34.1885 75.6377 33.626C76.3127 32.8385 76.8752 31.826 77.1002 30.8135C77.8877 31.151 78.7877 31.376 79.5752 31.376H80.1377C80.0252 32.3885 80.2502 33.5135 80.7002 34.526C79.5752 34.751 78.6752 35.201 77.8877 35.876Z" fill="#02BEFF"/>
<path d="M92.2878 57.7013H91.9503C91.1628 57.7013 90.3753 58.0388 89.8128 58.7138L89.5878 58.9388C88.3503 60.6263 85.7628 60.1763 85.0878 58.2638L84.9753 57.9263C84.7503 57.1388 84.0753 56.4638 83.2878 56.2388L82.9503 56.1263C80.9253 55.5638 80.5878 52.8638 82.2753 51.6263L82.5003 51.4013C83.1753 50.9513 83.6253 50.1638 83.6253 49.2638V48.9263C83.6253 46.7888 85.9878 45.6638 87.6753 46.9013L87.9003 47.1263C88.5753 47.5763 89.4753 47.8013 90.2628 47.4638L90.6003 47.3513C92.6253 46.6763 94.4253 48.5888 93.7503 50.5013V51.0638C93.5253 51.8513 93.6378 52.7513 94.0878 53.3138L94.3128 53.5388C95.6628 55.3388 94.4253 57.7013 92.2878 57.7013Z" fill="#FF7DAF"/>
<path d="M88.0129 55.3386C87.5629 54.6636 86.8879 53.9886 86.2129 53.5386C86.7754 52.8636 87.1129 52.0761 87.3379 51.2886C88.0129 51.5136 88.8004 51.7386 89.5879 51.7386H89.9254C89.9254 52.6386 90.0379 53.4261 90.3754 54.3261C89.4754 54.3261 88.6879 54.7761 88.0129 55.3386Z" fill="#FF5892"/>
<path d="M82.8382 38.1261H82.0507C81.2632 38.1261 80.4757 38.4636 80.0257 39.2511L79.5757 39.8136C78.3382 41.5011 75.7507 41.0511 75.0757 39.1386L74.8507 38.4636C74.6257 37.6761 73.9507 37.0011 73.1632 36.7761L72.4882 36.5511C70.4632 35.8761 70.0132 33.2886 71.8132 32.0511L72.3757 31.6011C73.0507 31.1511 73.5007 30.3636 73.3882 29.4636V28.7886C73.3882 26.6511 75.7507 25.5261 77.4382 26.7636L78.0007 27.2136C78.6757 27.6636 79.5757 27.8886 80.3632 27.5511L81.0382 27.3261C83.0632 26.6511 84.8632 28.5636 84.1882 30.4761L83.9632 31.1511C83.7382 31.9386 83.8507 32.8386 84.3007 33.4011L84.7507 33.9636C86.1007 35.7636 84.8632 38.1261 82.8382 38.1261Z" stroke="#0B4852" stroke-width="2.625" stroke-miterlimit="10" stroke-linecap="round" stroke-linejoin="round"/>
<path d="M92.2878 57.7013H91.9503C91.1628 57.7013 90.3753 58.0388 89.8128 58.7138L89.5878 58.9388C88.3503 60.6263 85.7628 60.1763 85.0878 58.2638L84.9753 57.9263C84.7503 57.1388 84.0753 56.4638 83.2878 56.2388L82.9503 56.1263C80.9253 55.5638 80.5878 52.8638 82.2753 51.6263L82.5003 51.4013C83.1753 50.9513 83.6253 50.1638 83.6253 49.2638V48.9263C83.6253 46.7888 85.9878 45.6638 87.6753 46.9013L87.9003 47.1263C88.5753 47.5763 89.4753 47.8013 90.2628 47.4638L90.6003 47.3513C92.6253 46.6763 94.4253 48.5888 93.7503 50.5013V51.0638C93.5253 51.8513 93.6378 52.7513 94.0878 53.3138L94.3128 53.5388C95.6628 55.3388 94.4253 57.7013 92.2878 57.7013Z" stroke="#0B4852" stroke-width="2.625" stroke-miterlimit="10" stroke-linecap="round" stroke-linejoin="round"/>
<path d="M55.7256 62.6513C55.7256 62.6513 66.5256 47.3513 78.3381 46.1138" stroke="#0B4852" stroke-width="2.625" stroke-miterlimit="10" stroke-linecap="round" stroke-linejoin="round"/>
<path d="M82.3881 62.6511L80.4756 68.7261" stroke="#0B4852" stroke-width="2.625" stroke-miterlimit="10" stroke-linecap="round" stroke-linejoin="round"/>
<path d="M78.3379 64.6763L84.4129 66.5888" stroke="#0B4852" stroke-width="2.625" stroke-miterlimit="10" stroke-linecap="round" stroke-linejoin="round"/>
</svg>
