<svg width="120" height="120" viewBox="0 0 120 120" fill="none" xmlns="http://www.w3.org/2000/svg">
<rect width="120" height="120" rx="60" fill="#F0F9F9"/>
<path d="M43.33 62.5648L44.0873 51.078C44.337 48.4438 42.4045 46.1058 39.7703 45.8561C37.1361 45.6063 34.7981 47.5389 34.5483 50.1731C34.5483 50.1731 33.9537 53.6942 33.3664 55.3207C31.0769 61.6641 26.0635 77.1322 38.7048 85.615C43.0092 88.5033 47.551 90.2726 52.3047 89.4104C57.0588 88.549 61.5331 85.9137 64.482 81.654L72.7069 69.5591L73.1705 68.8791L78.9104 60.5882C80.1646 58.7769 79.7125 56.2917 77.9012 55.0376C76.0899 53.7834 73.6047 54.2355 72.3506 56.0468L64.212 67.5269L76.2835 50.0917C77.4676 48.3817 77.0404 46.0359 75.3305 44.8517L74.9629 44.5977C73.253 43.4135 70.9071 43.8407 69.723 45.5507L58.7059 61.4872L72.4744 41.5987C73.6586 39.8888 73.2314 37.5429 71.5214 36.3588L71.1539 36.1047C69.4439 34.9206 67.098 35.3478 65.9139 37.0577L63.3816 40.716L52.7158 56.2267L62.667 41.8538C63.8511 40.1439 63.4239 37.798 61.7139 36.6139L61.3464 36.3598C59.6364 35.1757 57.2905 35.6029 56.1064 37.3128L43.8022 55.0859L43.33 62.5648Z" fill="white"/>
<path d="M31.8758 80.6219C29.9936 77.5232 29.0299 73.8649 29.0007 69.675C28.9607 64.034 30.5912 58.7798 32.016 54.8325C32.4536 53.6199 32.9565 50.9662 33.1247 49.9804C33.2943 48.347 34.0833 46.8735 35.3509 45.8254C36.6327 44.766 38.2512 44.2682 39.9065 44.4263C42.941 44.7138 45.2649 47.1457 45.5218 50.0794L54.9258 36.496C56.5593 34.1375 59.8058 33.5476 62.1646 35.1801L62.5325 35.4348C63.1896 35.8895 63.725 36.4734 64.104 37.1523L64.735 36.2408C66.3685 33.8823 69.6146 33.2918 71.9733 34.9242L72.3413 35.179C74.6994 36.8118 75.2903 40.0586 73.6575 42.4167L73.5672 42.547C74.3396 42.657 75.0989 42.9434 75.783 43.4168L76.151 43.6715C78.5091 45.3044 79.1 48.5511 77.4672 50.9092L76.081 52.9121C76.9996 52.9869 77.9112 53.2958 78.7217 53.8573C79.9134 54.6823 80.7122 55.9223 80.9717 57.3477C81.2311 58.7732 80.9195 60.2147 80.0945 61.4064L73.8963 70.3687L65.6732 82.4609C62.6154 86.8779 57.9624 89.8446 52.5651 90.823C47.9708 91.6559 43.1765 90.3419 37.9087 86.8066C35.3476 85.0909 33.3355 83.025 31.8758 80.6219ZM42.1768 48.8819C41.6445 48.0057 40.7241 47.3889 39.6346 47.2855C38.7425 47.2008 37.8713 47.4684 37.181 48.0395C36.4907 48.6107 36.0637 49.4159 35.979 50.3079C35.9761 50.3422 35.9713 50.3776 35.9657 50.4117C35.9402 50.5605 35.3421 54.0803 34.7181 55.808C32.8927 60.8656 27.3368 76.2552 39.506 84.4218C44.1233 87.5203 48.2263 88.69 52.0499 87.9971C56.6915 87.1556 60.6882 84.6122 63.302 80.8368L71.9846 68.0708L77.7298 59.7714C78.1178 59.2111 78.2649 58.5329 78.1427 57.8622C78.0204 57.1914 77.6442 56.6082 77.0835 56.2196C75.9264 55.4183 74.3331 55.7078 73.5317 56.8659L65.3844 68.3591C64.9273 69.0036 64.0357 69.1581 63.3886 68.7053C62.7424 68.251 62.5815 67.3606 63.0321 66.7113L75.1025 49.2742C75.8333 48.2178 75.5688 46.7639 74.513 46.0327L74.1451 45.778C73.1565 45.0938 71.8177 45.2822 71.0507 46.1763L59.8852 62.3047C59.4334 62.9565 58.5392 63.1197 57.8868 62.6683C57.2331 62.2176 57.0712 61.3226 57.5226 60.6702L57.5286 60.6613L68.542 44.7332C68.6112 44.6333 68.6833 44.5368 68.7574 44.4435L71.2931 40.7807C72.0236 39.7253 71.7593 38.2703 70.704 37.5398L70.336 37.2851C69.2803 36.5539 67.8263 36.8184 67.0951 37.8741L64.2448 41.9941C64.13 42.227 63.9979 42.4529 63.8475 42.6706L53.897 57.0431C53.4458 57.6945 52.5526 57.8579 51.9 57.4076C51.2488 56.9581 51.0833 56.0644 51.5326 55.4115L61.7329 40.5775C61.8965 40.1736 61.9422 39.7317 61.8622 39.2923C61.7496 38.6807 61.4079 38.1485 60.8961 37.7942L60.5281 37.5395C59.4724 36.8083 58.0184 37.0728 57.2873 38.1286L45.2316 55.5436L44.763 62.6588C44.7107 63.4496 44.0278 64.0487 43.2371 63.9981C42.446 63.9468 41.846 63.2652 41.8962 62.4739L42.3685 54.995C42.3741 54.9117 42.3865 54.8296 42.4061 54.7492L42.6541 50.9824C42.7271 50.2141 42.544 49.4864 42.1768 48.8819Z" fill="#0B4852"/>
<path d="M90.3466 64.4115C89.4189 69.6135 87.2877 74.5866 84.062 78.8818L90.3466 64.4115Z" fill="#768DFF"/>
<path d="M82.8342 79.6284C82.5383 79.1413 82.55 78.5032 82.9133 78.0193C85.957 73.9662 88.0381 69.1736 88.9321 64.1588C89.071 63.3777 89.8171 62.8578 90.5982 62.9967C91.3793 63.1357 91.8985 63.8821 91.7602 64.6628C90.7877 70.1176 88.5227 75.3326 85.2103 79.7436C84.7339 80.3779 83.8334 80.5063 83.1991 80.0298C83.0485 79.9177 82.9265 79.7803 82.8342 79.6284Z" fill="#1590A3"/>
<path d="M36.4409 34.5498C41.1258 30.4423 46.6217 27.8535 52.3266 26.7443L36.4409 34.5498Z" fill="#768DFF"/>
<path d="M35.2125 35.2941C34.8574 34.7095 34.9623 33.9359 35.4943 33.4697C40.2078 29.337 45.9336 26.5242 52.0525 25.3339C52.8313 25.1829 53.5841 25.6927 53.7366 26.4696C53.8876 27.2484 53.3797 28.0027 52.6009 28.1537C46.9801 29.2468 41.7198 31.8321 37.388 35.6295C36.7913 36.1525 35.8838 36.093 35.3608 35.4963C35.3054 35.4325 35.2553 35.3646 35.2125 35.2941Z" fill="#1590A3"/>
</svg>
