<svg width="18" height="22" viewBox="0 0 18 22" fill="none" xmlns="http://www.w3.org/2000/svg">
<path d="M5.57143 3.22222H3.28571C2.02335 3.22222 1 4.21715 1 5.44444V18.7778C1 20.0051 2.02335 21 3.28571 21H14.7143C15.9767 21 17 20.0051 17 18.7778V5.44444C17 4.21715 15.9767 3.22222 14.7143 3.22222H12.4286M5.57143 3.22222C5.57143 4.44952 6.59478 5.44444 7.85714 5.44444H10.1429C11.4052 5.44444 12.4286 4.44952 12.4286 3.22222M5.57143 3.22222C5.57143 1.99492 6.59478 1 7.85714 1H10.1429C11.4052 1 12.4286 1.99492 12.4286 3.22222" stroke="#8D8D8D" stroke-width="1.5" stroke-linecap="round"/>
</svg>
